<svg width="76" height="31" viewBox="0 0 76 31" fill="none" xmlns="http://www.w3.org/2000/svg">
<path d="M6 23.3C5.04 23.3 4.16 23.21 3.36 23.03C2.58 22.85 1.77 22.57 0.93 22.19L1.26 19.01C2.1 19.51 2.88 19.89 3.6 20.15C4.34 20.39 5.1 20.51 5.88 20.51C7.4 20.51 8.16 20.01 8.16 19.01C8.16 18.47 7.96 18.06 7.56 17.78C7.16 17.48 6.44 17.13 5.4 16.73C3.92 16.19 2.83 15.58 2.13 14.9C1.43 14.2 1.08 13.26 1.08 12.08C1.08 10.78 1.58 9.73 2.58 8.93C3.58 8.11 4.93 7.7 6.63 7.7C8.33 7.7 9.88 8.09 11.28 8.87L10.95 12.05C10.19 11.53 9.47 11.13 8.79 10.85C8.13 10.57 7.43 10.43 6.69 10.43C6.05 10.43 5.55 10.56 5.19 10.82C4.85 11.08 4.68 11.45 4.68 11.93C4.68 12.31 4.78 12.62 4.98 12.86C5.2 13.1 5.5 13.32 5.88 13.52C6.26 13.7 6.89 13.96 7.77 14.3C9.23 14.86 10.28 15.48 10.92 16.16C11.56 16.82 11.88 17.71 11.88 18.83C11.88 20.25 11.37 21.35 10.35 22.13C9.33 22.91 7.88 23.3 6 23.3ZM20.4855 23.3C18.8255 23.3 17.3955 22.96 16.1955 22.28C15.0155 21.58 14.1255 20.64 13.5255 19.46C12.9255 18.28 12.6255 16.97 12.6255 15.53C12.6255 14.07 12.9255 12.75 13.5255 11.57C14.1255 10.37 15.0255 9.43 16.2255 8.75C17.4255 8.05 18.8855 7.7 20.6055 7.7C22.1455 7.7 23.4855 8.02 24.6255 8.66L24.3255 11.66C23.2455 11.1 22.1255 10.82 20.9655 10.82C19.5455 10.82 18.4355 11.25 17.6355 12.11C16.8355 12.97 16.4355 14.11 16.4355 15.53C16.4355 16.89 16.8455 18.02 17.6655 18.92C18.4855 19.8 19.5755 20.24 20.9355 20.24C22.0755 20.24 23.2155 19.91 24.3555 19.25L24.6855 22.4C24.1455 22.68 23.5055 22.9 22.7655 23.06C22.0455 23.22 21.2855 23.3 20.4855 23.3ZM30.8079 22.01L24.5679 8H28.7079L32.5479 17.66L36.4479 8H40.5879L31.1979 30.26H27.4779L30.8079 22.01ZM45.3312 23.3C44.0512 23.3 43.0912 22.94 42.4512 22.22C41.8112 21.48 41.4912 20.53 41.4912 19.37V0.499998H45.2112V17.84C45.2112 18.64 45.2512 19.21 45.3312 19.55C45.4312 19.87 45.5912 20.07 45.8112 20.15C46.0512 20.21 46.4512 20.24 47.0112 20.24L46.6812 23.3H45.3312ZM52.312 23.3C51.032 23.3 50.072 22.94 49.432 22.22C48.792 21.48 48.472 20.53 48.472 19.37V0.499998H52.192V17.84C52.192 18.64 52.232 19.21 52.312 19.55C52.412 19.87 52.572 20.07 52.792 20.15C53.032 20.21 53.432 20.24 53.992 20.24L53.662 23.3H52.312ZM68.9864 0.499998V23H65.4764L65.4164 22.04C64.8364 22.46 64.2264 22.78 63.5864 23C62.9664 23.2 62.2264 23.3 61.3664 23.3C59.9064 23.3 58.6464 22.95 57.5864 22.25C56.5464 21.55 55.7564 20.61 55.2164 19.43C54.6764 18.25 54.4064 16.95 54.4064 15.53C54.4064 14.11 54.6764 12.81 55.2164 11.63C55.7564 10.45 56.5464 9.51 57.5864 8.81C58.6464 8.11 59.9064 7.76 61.3664 7.76C62.8264 7.76 64.1264 8.16 65.2664 8.96V0.499998H68.9864ZM61.9064 20.24C63.0864 20.24 63.9664 19.82 64.5464 18.98C65.1464 18.14 65.4464 16.99 65.4464 15.53C65.4464 14.07 65.1464 12.92 64.5464 12.08C63.9664 11.24 63.0864 10.82 61.9064 10.82C60.7464 10.82 59.8364 11.25 59.1764 12.11C58.5364 12.97 58.2164 14.11 58.2164 15.53C58.2164 16.95 58.5364 18.09 59.1764 18.95C59.8364 19.81 60.7464 20.24 61.9064 20.24Z" fill="white"/>
<path d="M71.1851 18.92H75.0851V23H71.1851V18.92Z" fill="#DD0014"/>
</svg>
